<svg preserveAspectRatio="none" width="100%" height="100%" overflow="visible" style="display: block;" viewBox="0 0 60 60" fill="none" xmlns="http://www.w3.org/2000/svg">
<g id="Group">
<path id="Subtract" d="M30 0C39.9463 0 48.0855 0.630703 53.7461 6.26953C59.418 11.9222 60 20.0692 60 30.0293C60 39.9783 59.4241 48.1177 53.7646 53.7725C48.1067 59.4273 39.9579 60 30 60C20.0422 60 11.8913 59.4273 6.2334 53.7725C0.573945 48.1188 4.46473e-06 39.9781 0 30.0293C0 20.0819 0.574129 11.9437 6.23145 6.29199C11.8897 0.637929 20.0412 0 30 0ZM12.2686 18.5869C12.0606 18.5869 11.8936 18.7528 11.8936 18.957V41.1504C11.8936 41.3514 12.0607 41.5186 12.2686 41.5186H17.1338C17.3417 41.5184 17.5127 41.3513 17.5127 41.1504V23.7314C17.5127 23.5303 17.682 23.3643 17.8887 23.3643H26.7021C28.4347 23.4068 30.1011 23.6116 30.9941 24.5068C32.0316 25.5477 32.1472 27.6153 32.1523 29.627V41.1504C32.1523 41.3514 32.323 41.5186 32.5312 41.5186H37.3936C37.6012 41.5184 37.7705 41.3513 37.7705 41.1504V29.8223C37.7628 26.2203 37.5611 22.5104 35.7012 20.6475C33.8093 18.7547 29.9738 18.5869 26.3057 18.5869H12.2686ZM22.2861 27.4258C22.0764 27.426 21.9083 27.5914 21.9082 27.7939V41.1504C21.9082 41.3512 22.0764 41.5183 22.2861 41.5186H27.3945C27.6012 41.5183 27.7695 41.3512 27.7695 41.1504V27.7939C27.7694 27.5914 27.6012 27.426 27.3945 27.4258H22.2861ZM42.5459 18.5869C42.3371 18.5869 42.168 18.7528 42.168 18.957V41.1504C42.168 41.3514 42.3372 41.5186 42.5459 41.5186H47.4082C47.6143 41.5186 47.7861 41.3514 47.7861 41.1504V18.957C47.7861 18.7527 47.6143 18.5869 47.4082 18.5869H42.5459Z" fill="var(--fill-0, #73727E)"/>
</g>
</svg>
