<svg preserveAspectRatio="none" width="100%" height="100%" overflow="visible" style="display: block;" viewBox="0 0 121 55" fill="none" xmlns="http://www.w3.org/2000/svg">
<g id="Group">
<g id="Group_2">
<path id="Vector" d="M32.6986 0.791314V11.1302H17.5787V0.791314H8.87221V27.659H17.5787V17.0169H32.6986V27.659H41.4051V0.791314H32.6986Z" fill="var(--fill-0, #73727E)"/>
<path id="Vector_2" d="M59.2415 6.9887C59.2415 7.83179 58.4371 8.48259 57.407 9.02245C57.407 9.02245 56.5039 9.49576 56.0594 9.70284C54.9376 8.71924 53.9569 7.86876 53.9569 6.9887C53.9569 5.8646 54.8529 5.01412 56.6027 5.01412C58.2607 5.01412 59.2485 5.8646 59.2485 6.9887M60.6878 21.6095C59.2132 22.5931 57.8233 23.0368 55.9395 23.0368C53.2513 23.0368 51.1065 21.6465 51.1065 19.6423C51.1065 17.9118 52.4047 16.9652 54.3308 15.9446L60.6949 21.6095H60.6878ZM75.963 27.659L69.5919 21.9645C72.0825 19.8494 73.1267 17.0983 73.3807 13.6224H67.2565C67.1577 15.5452 66.6074 17.1722 65.4644 18.3407L59.4955 12.9864C60.3844 12.5279 62.0354 11.5887 62.0354 11.5887C64.2226 10.3832 65.669 8.99287 65.669 6.91475C65.669 3.254 62.1765 0.576845 56.6098 0.576845C50.6831 0.576845 47.1483 3.18005 47.1483 6.8408C47.1483 9.40702 49.2367 11.2929 50.6831 12.5279C47.5928 14.0809 44.312 16.307 44.312 19.7385C44.312 24.797 48.1925 27.8883 56.01 27.8883C61.09 27.8883 63.5312 26.2982 65.1681 25.322L67.7574 27.659H75.9701H75.963Z" fill="var(--fill-0, #73727E)"/>
<path id="Vector_3" d="M85.3539 14.2215C85.3539 19.4279 85.8901 20.3449 86.7508 21.1954C87.4564 21.8758 90.9489 22.46 93.7005 22.46C96.4451 22.46 99.9376 21.8758 100.636 21.1954C101.497 20.3523 102.04 19.4353 102.04 14.2215C102.04 9.02245 101.497 8.05365 100.636 7.21796C99.9376 6.53758 96.4451 5.98292 93.7005 5.98292C90.9489 5.97553 87.4564 6.54498 86.7508 7.21796C85.883 8.06105 85.3539 9.02245 85.3539 14.2215ZM76.2734 14.2215C76.2734 10.0282 76.1182 6.10125 80.0763 3.15786C82.828 1.11671 88.2607 0 93.7005 0C99.1333 0 104.566 1.11671 107.318 3.15786C111.283 6.10125 111.121 10.0282 111.121 14.2215C111.121 18.4221 111.283 22.3491 107.318 25.2925C104.573 27.3336 99.1403 28.4355 93.7005 28.4355C88.2607 28.4355 82.8209 27.3336 80.0763 25.2925C76.1112 22.3565 76.2734 18.4295 76.2734 14.2215Z" fill="var(--fill-0, #73727E)"/>
</g>
<path id="Vector_4" d="M12.3082 42.2724C12.3435 42.3168 12.3647 42.3686 12.407 42.4129C12.8656 43.1821 13.1196 44.0473 13.162 45.0013C13.2255 46.1698 12.9432 47.2644 12.4917 48.2923C11.9978 49.483 11.2993 50.4888 10.4879 51.3984C9.2391 52.8035 7.81389 53.8981 6.16996 54.5711C5.45735 54.8743 4.72358 55.037 3.94747 54.9926C3.51003 54.9704 3.09376 54.8521 2.74098 54.5489C2.50109 54.364 2.26121 54.1273 2.04954 53.8981C1.80966 53.6392 1.71088 53.2916 1.6756 52.9145C1.65443 52.4707 1.73204 52.027 1.85199 51.6277C2.07071 50.9251 2.40937 50.2965 2.78331 49.7122C3.5947 48.4994 4.54719 47.4714 5.59846 46.584C6.79084 45.556 8.03966 44.6464 9.3026 43.7589C9.74004 43.4557 10.2128 43.1525 10.6714 42.8493C10.7066 42.7975 10.7701 42.7531 10.8266 42.7309C10.7843 42.5682 10.6714 42.5239 10.5655 42.4721C10.0505 42.1689 9.4931 42.0062 8.94277 41.8879C7.93383 41.703 6.91784 41.7473 5.9089 41.9322C5.78896 41.9544 5.71135 42.0284 5.66902 42.1689C5.09752 43.4335 4.54014 44.7129 3.96864 45.9775C3.65114 46.7245 3.31248 47.4714 2.91737 48.174C2.71982 48.5659 2.47993 48.9209 2.22593 49.2463C2.12715 49.3425 2.02838 49.4312 1.95077 49.5052C1.83082 49.6013 1.73204 49.6013 1.59093 49.5717C1.47099 49.5495 1.39338 49.4756 1.32988 49.3351C1.26638 49.1724 1.18877 49.0319 1.11116 48.8913C1.11116 48.8692 1.08999 48.8248 1.07588 48.8248C0.934773 48.7508 0.800718 48.6621 0.638442 48.6177C0.363277 48.5438 0.201001 48.3589 0.102224 48.0557C0.024613 47.7525 0.00344645 47.4492 0.00344645 47.146C-0.0177201 46.4435 0.0598905 45.7483 0.201001 45.0457C0.320944 44.3653 0.497332 43.6923 0.638442 43.012C0.659608 42.9454 0.673719 42.8493 0.694886 42.7531C0.638442 42.7088 0.574942 42.6866 0.518498 42.6348C0.518498 42.4943 0.617275 42.4277 0.694886 42.3316C0.835996 42.2133 0.89244 42.0506 0.955939 41.8657C1.64738 39.5583 2.52226 37.3618 3.49592 35.2098C4.15208 33.7824 4.82236 32.4069 5.53496 31.0535C5.63374 30.8686 5.75368 30.7059 5.89479 30.5432C5.95124 30.4693 6.05001 30.4027 6.13468 30.4027C6.25462 30.4027 6.33223 30.3066 6.43101 30.3066C6.52979 30.2844 6.62856 30.3288 6.72734 30.3066C6.90373 30.2844 7.10128 30.2548 7.24239 30.4249C7.29884 30.4693 7.3835 30.4915 7.41878 30.521C7.47523 30.6837 7.55989 30.8464 7.59517 31.0313C7.6375 31.1718 7.6375 31.3345 7.61633 31.4972C7.58106 31.6821 7.51756 31.8966 7.46111 32.0815C7.24239 32.614 7.04484 33.1316 6.82612 33.6715C5.85246 35.8458 4.96347 38.057 4.15208 40.3274C4.13092 40.394 4.10975 40.4457 4.07447 40.5641C4.13092 40.5419 4.17325 40.5197 4.21558 40.4975C4.90702 40.0316 5.58435 39.5879 6.27579 39.122C6.3534 39.048 6.43101 38.9593 6.49451 38.8631C7.32706 37.347 8.23722 35.8753 9.26732 34.522C9.64126 33.9821 10.0575 33.4718 10.5161 33.0281C10.6925 32.8654 10.876 32.7249 11.0524 32.5844C11.3487 32.3773 11.6874 32.259 12.0472 32.259C12.1883 32.259 12.3082 32.3107 12.4211 32.3551C12.5764 32.4217 12.661 32.5622 12.7175 32.7323C12.8797 33.1021 12.8374 33.4792 12.7386 33.849C12.6399 34.2705 12.4776 34.6181 12.28 34.9657C11.8637 35.7792 11.3275 36.4818 10.756 37.1622C9.86704 38.1901 8.87221 39.0998 7.84211 39.9355C7.77861 39.9798 7.72217 40.0538 7.64456 40.1203C7.72217 40.1647 7.78567 40.1647 7.86328 40.1647C8.3995 40.1869 8.94983 40.283 9.46488 40.4457C10.241 40.6528 10.9748 41.0078 11.6239 41.5403C11.6239 41.5403 11.8637 41.6586 12.3153 42.265M4.68125 42.339C4.63891 42.339 4.61775 42.339 4.60364 42.3612C4.14503 42.6422 3.71464 42.9232 3.25603 43.1821C3.17842 43.2486 3.13609 43.3226 3.10081 43.4187C2.76215 44.4689 2.44465 45.519 2.19065 46.6209C2.14832 46.8058 2.11304 46.9685 2.07071 47.1534C2.09188 47.1534 2.11304 47.1534 2.13421 47.1756C3.12198 45.6595 3.87692 43.9808 4.6883 42.3464M11.3558 44.1878C11.2923 43.8107 11.1935 43.4409 11.0171 43.0933C10.9395 43.1377 10.876 43.1599 10.8195 43.2116C9.41549 44.1435 8.04672 45.1271 6.71323 46.1994C6.27579 46.5248 5.85951 46.902 5.44324 47.2717C4.56836 48.0631 3.77814 48.9505 3.10081 49.9785C2.80448 50.4666 2.52932 50.9843 2.32471 51.5685C2.20476 51.9457 2.12715 52.3376 2.14832 52.7592C2.14832 53.3656 2.40937 53.7871 2.86093 54.046C3.19959 54.2309 3.55236 54.2826 3.93336 54.2309C4.3708 54.1865 4.78708 54.046 5.20335 53.8537C6.9884 53.018 8.47005 51.6868 9.70476 49.9341C10.3186 49.0245 10.8336 48.0187 11.1511 46.902C11.391 46.0145 11.511 45.1049 11.3487 44.1952M8.04672 37.7168L8.08905 37.6946C8.97805 36.9477 9.83176 36.1564 10.5655 35.2172C10.9606 34.7291 11.3205 34.2336 11.5745 33.6567C11.6168 33.5384 11.6732 33.3979 11.7156 33.2795C11.6944 33.2795 11.6944 33.2574 11.6732 33.2352C11.5956 33.3017 11.4969 33.3535 11.4122 33.4201C11.0383 33.7011 10.6784 34.0265 10.3609 34.3963C9.47193 35.3799 8.73816 36.4966 8.03966 37.6429V37.7094L8.04672 37.7168ZM20.5138 43.0637C20.5138 43.0637 20.535 43.1377 20.5138 43.1821C20.5138 43.2042 20.4926 43.2264 20.4926 43.2486C20.4362 43.3448 20.3727 43.4557 20.3162 43.5296C19.8576 43.9956 19.3426 44.2544 18.7711 44.3431C18.6088 44.3653 18.4536 44.2988 18.3336 44.1583C18.2772 44.0917 18.2137 44.0177 18.1361 43.9512C17.9385 43.7885 17.8186 43.5296 17.7621 43.2708C17.7198 43.1303 17.7057 42.9898 17.6634 42.8271C17.6069 42.9232 17.5646 42.9676 17.5223 43.0341C16.9649 44.0399 16.3934 45.0161 15.8148 46.0219C15.4973 46.5544 15.1798 47.0943 14.8412 47.6119C14.7424 47.7524 14.6224 47.893 14.5025 48.0113C14.4461 48.0778 14.3473 48.1296 14.2626 48.1518C14.1427 48.1518 14.0651 48.1 14.0227 47.9669C13.9451 47.6637 13.7617 47.501 13.5077 47.4492C13.289 47.4049 13.2113 47.2643 13.1902 47.0277C13.1902 46.8206 13.2113 46.6062 13.2466 46.3991C13.3666 45.6965 13.543 45.0457 13.7828 44.4171C14.3755 42.7161 15.1728 41.1705 16.1394 39.7432C16.2029 39.647 16.2593 39.5805 16.3158 39.4843C16.4922 39.2255 16.732 39.1367 17.0072 39.1589C17.106 39.1589 17.1836 39.1146 17.2683 39.1367C17.3882 39.1811 17.487 39.2329 17.5646 39.2773C17.621 39.4178 17.6634 39.5139 17.6845 39.6248C17.7057 39.721 17.7198 39.8615 17.7057 39.9502C17.6845 40.1129 17.6281 40.2535 17.5505 40.4162C17.2894 40.9782 17.0354 41.5625 16.7603 42.1393C16.4639 42.8197 16.1464 43.4927 15.8289 44.173C15.8078 44.2396 15.7725 44.3136 15.7725 44.4097C15.8078 44.3357 15.8501 44.2914 15.8924 44.2248C16.3863 43.4039 16.8873 42.5682 17.36 41.7473C17.3812 41.6956 17.3953 41.6734 17.4164 41.6512C17.5575 41.348 17.7904 41.2518 18.0726 41.274C18.249 41.2962 18.3689 41.4589 18.3901 41.7178C18.3901 41.9026 18.3689 42.1171 18.3689 42.302C18.3478 42.6052 18.3266 42.9306 18.3125 43.2338C18.3125 43.3522 18.3336 43.4705 18.3478 43.5814C18.4254 43.8846 18.6088 44.003 18.884 43.929C19.1803 43.855 19.4625 43.7219 19.7377 43.5296C19.9141 43.4113 20.1116 43.2708 20.288 43.1303C20.3304 43.1081 20.3656 43.0637 20.4291 43.0341H20.5067L20.5138 43.0637ZM29.2344 43.3448C29.1568 43.4631 29.0933 43.5518 29.0157 43.6702C27.8021 45.5412 26.5745 47.4049 25.4315 49.3203C25.2128 49.6975 24.9517 50.045 24.7189 50.3926C24.6413 50.511 24.5213 50.5997 24.4014 50.718C24.3449 50.7624 24.2814 50.792 24.2038 50.8142C24.0486 50.8585 23.9287 50.792 23.8299 50.6293C23.7523 50.4666 23.6535 50.3704 23.4912 50.3261C23.3148 50.2595 23.1949 50.119 23.0961 49.9341C22.955 49.6531 22.8986 49.3499 22.8774 49.0467C22.7786 48.2036 22.8139 47.4123 22.9338 46.6209C22.9691 46.2955 23.0326 45.9701 23.0749 45.593C23.0397 45.6595 22.9973 45.7113 22.955 45.7557C22.6587 46.2438 22.3623 46.7097 21.9602 47.109C21.805 47.2939 21.6215 47.4344 21.4451 47.575C21.2899 47.6933 21.1065 47.6933 20.9089 47.6415C20.7678 47.5971 20.669 47.501 20.5702 47.3383C20.4926 47.1978 20.415 47.0351 20.3092 46.8724C20.3092 46.8502 20.2669 46.828 20.2457 46.828C20.0693 46.7762 19.9494 46.5914 19.7518 46.5692C19.7306 46.5692 19.6954 46.5692 19.653 46.547C19.3779 46.4804 19.2791 46.3399 19.2579 46.0145C19.2367 45.8962 19.2367 45.7557 19.2579 45.6669C19.3779 44.5206 19.7306 43.5222 20.3868 42.7235C20.7466 42.2576 21.1982 42.021 21.7767 42.0432C22.1507 42.0432 22.4893 42.2059 22.7081 42.6496C22.7081 42.6718 22.7292 42.694 22.7504 42.7161C22.8068 42.6718 22.828 42.5978 22.8703 42.5534C23.3219 41.8509 23.7593 41.1779 24.2179 40.4753C24.359 40.2682 24.5143 40.0538 24.6765 39.8467C24.8318 39.6396 25.0717 39.5879 25.3115 39.5657C25.3891 39.5657 25.4668 39.5657 25.5514 39.5435C25.7066 39.5435 25.8689 39.6396 26.0312 39.7284C26.0312 39.7506 26.0524 39.7506 26.0665 39.7802C26.2076 40.1056 26.3416 40.4088 26.2429 40.7563C26.2076 40.993 26.1653 41.2223 26.1018 41.4367C25.7631 42.6052 25.4103 43.7515 25.0717 44.8904C24.733 46.0589 24.3943 47.2496 24.1827 48.4624C24.105 48.8618 24.0839 49.2537 24.0415 49.6531C24.0204 49.7714 24.0415 49.9119 24.0415 50.0746C24.1615 49.9563 24.2603 49.9119 24.3379 49.8158C24.6765 49.3721 25.0082 48.9505 25.3115 48.5068C26.0453 47.4123 26.7791 46.3103 27.5129 45.2158C28.0067 44.4911 28.5218 43.8181 29.1356 43.256C29.1568 43.2338 29.1991 43.2116 29.2132 43.2116C29.2908 43.256 29.2908 43.3078 29.2344 43.3522M22.2353 43.4853C22.2142 43.3448 22.1577 43.1821 22.059 42.9972C21.4451 43.5592 21.2687 44.3727 21.05 45.2158C21.1135 45.1936 21.1276 45.1936 21.1276 45.1714C21.4875 44.6612 21.8402 44.1435 22.2001 43.6332C22.2424 43.611 22.2424 43.537 22.2424 43.4927M35.8948 43.1821C35.916 43.2264 35.8948 43.3226 35.8736 43.3669C35.8172 43.4631 35.7537 43.574 35.6761 43.6702C35.2386 44.21 34.8012 44.7203 34.3637 45.2306C34.1662 45.4673 33.9263 45.63 33.6935 45.6965C33.5383 45.7705 33.3548 45.7705 33.1996 45.6965C33.1573 45.6521 33.1008 45.6521 33.0585 45.6004C32.8609 45.2528 32.5646 45.0679 32.3882 44.6685C32.233 44.247 32.1272 43.8033 32.0919 43.3374C32.0707 43.0341 32.0566 42.7531 32.0354 42.4055C31.9155 42.5239 31.8379 42.5904 31.7391 42.6866C31.0688 43.3891 30.5326 44.321 30.074 45.3489C29.8976 45.7261 29.7353 46.0959 29.5801 46.4952C29.559 46.5618 29.5237 46.6357 29.4813 46.7319C29.4249 46.8946 29.3261 46.9685 29.185 46.8946C29.1286 46.7097 29.0651 46.547 29.0086 46.3843C28.931 46.1772 28.7687 46.1254 28.6347 46.0811C28.3595 45.9406 28.2749 45.8222 28.2607 45.3785C28.2043 44.0473 28.3807 42.7901 28.8181 41.6216C28.8746 41.4367 28.9592 41.2962 29.0368 41.1335C29.1356 40.993 29.2556 40.9264 29.3967 40.8747C29.5731 40.8007 29.7706 40.8007 29.9541 40.8007C30.074 40.7785 30.1939 40.8007 30.2927 40.9191C30.3351 40.9634 30.3915 40.9856 30.4338 41.0152C30.4762 41.1779 30.5326 41.3184 30.5538 41.4811C30.5961 41.6438 30.6102 41.8287 30.5961 41.9988C30.5326 42.3686 30.455 42.7457 30.3986 43.1155C30.3774 43.2338 30.3562 43.3522 30.3774 43.4631C30.4197 43.4187 30.4762 43.3448 30.5185 43.2782C30.8924 42.8123 31.2734 42.3242 31.6474 41.8583C31.8449 41.5994 32.0637 41.5329 32.3035 41.5551C32.5434 41.5551 32.6987 41.7178 32.7974 42.0432C32.9174 42.4869 32.9174 42.9306 32.9385 43.3965C32.9597 43.7219 32.9809 44.0769 32.995 44.4023C32.995 44.5428 33.0373 44.6611 33.0726 44.7721C33.1502 45.0975 33.3689 45.2898 33.6088 45.2602C33.8275 45.2158 34.0463 45.0975 34.2226 44.9348C34.4414 44.7277 34.6601 44.4911 34.8576 44.2544C35.0764 43.9956 35.2951 43.7441 35.5138 43.4853C35.6126 43.3669 35.7113 43.2782 35.8101 43.2042C35.8525 43.1599 35.8877 43.0859 35.9301 43.1821M46.2382 33.213C46.3158 33.5828 46.2593 33.9821 46.1817 34.3593C45.9842 35.3133 45.6455 36.1564 45.2081 36.9773C44.8482 37.6281 44.4531 38.2123 44.0368 38.7966C43.423 39.6396 42.7669 40.4531 42.0754 41.1779C41.6591 41.6216 41.2217 42.021 40.7278 42.3242C40.6643 42.3686 40.629 42.4425 40.6079 42.5313C40.3468 43.6036 40.1281 44.7055 40.114 45.8444C40.114 46.192 40.1352 46.5692 40.1704 46.9389C40.1916 47.1238 40.2692 47.3161 40.3468 47.501C40.4879 47.7598 40.6431 47.8042 40.9042 47.6859C41.3205 47.501 41.6944 47.1756 42.0331 46.7984C42.2306 46.5618 42.4282 46.3103 42.6257 46.0515C43.2607 45.2306 43.9169 44.4171 44.5448 43.6036C44.6648 43.4853 44.7847 43.3669 44.9188 43.256C44.9541 43.2116 45.0176 43.1895 45.0599 43.1599C45.0811 43.1599 45.1375 43.1599 45.1375 43.1821C45.1587 43.2042 45.1587 43.2782 45.1375 43.3004C45.1022 43.3965 45.0387 43.4853 44.9611 43.5814C44.7636 43.8624 44.5448 44.1139 44.3261 44.4023C43.8322 45.0827 43.3313 45.7779 42.8374 46.4582C42.5411 46.902 42.2236 47.3235 41.8426 47.6933C41.6874 47.856 41.5039 47.9965 41.3487 48.1148C41.2076 48.211 41.0735 48.2997 40.9324 48.3515C40.5938 48.4698 40.2974 48.3515 40.0787 48.0261C40.0011 47.9299 39.9235 47.8634 39.8388 47.7894C39.6413 47.6711 39.479 47.4862 39.359 47.2496C39.1615 46.902 39.0415 46.5026 38.9428 46.1033C38.8228 45.4968 38.7805 44.8904 38.7805 44.2618V44.0547H38.7452C38.7029 44.0991 38.6676 44.1509 38.6253 44.1952C38.3501 44.639 38.0749 45.0605 37.7927 45.5042C37.5317 45.9036 37.2777 46.3473 37.0025 46.7393C36.9249 46.8798 36.805 47.0203 36.685 47.1164C36.6074 47.183 36.5086 47.2126 36.4098 47.2348C36.2476 47.2348 36.1488 47.1164 36.1135 46.9537C36.0359 46.7689 35.916 46.6283 35.7396 46.5766C35.4997 46.5322 35.3233 46.3177 35.2669 46.0441C35.2034 45.8074 35.1469 45.556 35.1257 45.2972C35.0481 44.247 35.2245 43.2412 35.6831 42.3316C35.8807 41.9322 36.1417 41.6068 36.4381 41.3036C36.932 40.8155 37.5317 40.675 38.1667 40.7711C38.5406 40.8155 38.8369 41.0522 38.9992 41.4737C38.9992 41.5181 39.0415 41.5403 39.0627 41.6142C39.0839 41.5181 39.098 41.4515 39.1192 41.3776C39.5919 38.7596 40.6079 36.4522 42.0542 34.4184C42.4705 33.8342 42.9291 33.3017 43.4583 32.8802C43.9733 32.4808 44.5237 32.2516 45.1446 32.2294C45.2645 32.2294 45.4056 32.2294 45.5044 32.2516C45.963 32.3699 46.1606 32.7397 46.2382 33.2352M38.844 43.1155C38.6464 42.7383 38.4277 42.3686 38.2302 41.9988C38.0749 42.0432 37.955 42.1393 37.8562 42.2576C37.6375 42.4425 37.4964 42.7014 37.3623 42.9824C37.0237 43.6849 36.7838 44.4319 36.6286 45.2232C36.5933 45.4599 36.551 45.6891 36.5086 45.9701C37.32 44.9865 38.0961 44.0547 38.844 43.1229M45.3492 33.2869C45.2504 33.3313 45.1939 33.3535 45.1304 33.4053C44.813 33.5902 44.5166 33.8268 44.2767 34.13C43.9804 34.5072 43.6841 34.8991 43.423 35.3207C42.4494 36.9107 41.7156 38.6339 41.1441 40.4605C41.1229 40.5789 41.0876 40.6676 41.0665 40.7637C41.0665 40.7859 41.0876 40.7859 41.0876 40.8081C41.1653 40.712 41.264 40.6232 41.3487 40.5493C41.6662 40.2017 41.9837 39.8467 42.3012 39.4991C43.035 38.656 43.7052 37.7982 44.305 36.7924C44.6225 36.2599 44.8976 35.6757 45.0952 35.0397C45.2363 34.6403 45.3139 34.2188 45.3562 33.8046C45.3774 33.6419 45.3986 33.4792 45.3562 33.2943M50.2598 43.2264C50.3162 43.2042 50.3797 43.2042 50.4785 43.1821C50.4432 43.2486 50.4432 43.3226 50.4009 43.3448C50.3021 43.4113 50.1822 43.5075 50.0622 43.5814C49.272 44.1435 48.4748 44.6759 47.6634 45.238C47.6069 45.2898 47.5434 45.3341 47.487 45.3785C47.5505 46.1698 47.3106 46.8724 46.9508 47.5232C46.3793 48.5733 45.6032 49.3647 44.693 49.9711C44.4531 50.1116 44.2132 50.2077 43.9592 50.2965C43.8393 50.3483 43.6982 50.3187 43.5853 50.3187C43.4089 50.3187 43.2678 50.2225 43.2114 50.0376C43.169 49.9193 43.0914 49.8749 42.9926 49.8306C42.7951 49.764 42.7175 49.6235 42.7951 49.3868C42.8515 49.1798 42.9503 48.9653 43.0702 48.7582C43.3101 48.3663 43.6276 48.0335 43.924 47.7081C44.4813 47.1682 45.0952 46.7023 45.6878 46.2364C45.8642 46.1181 46.0477 45.9775 46.2029 45.8592C46.2805 45.8148 46.344 45.7409 46.344 45.6521C46.344 45.4894 46.3652 45.3267 46.344 45.164C46.344 44.883 46.2452 44.6759 46.0053 44.5576C45.8854 44.4911 45.7443 44.3949 45.6455 44.2988C45.5467 44.2026 45.4479 44.0917 45.3703 43.9734C45.3139 43.855 45.2151 43.7663 45.1093 43.6923C44.9117 43.5518 44.7353 43.4113 44.559 43.2486C44.439 43.1525 44.3402 43.0415 44.2626 42.9232C44.1074 42.6866 44.0439 42.3833 44.1427 42.1023C44.2062 41.8952 44.2838 41.6808 44.4037 41.5181C45.1022 40.4901 45.9912 39.9281 47.0989 39.8837C47.3741 39.8615 47.6352 39.9281 47.8892 40.0908C47.9879 40.1573 48.0867 40.2313 48.1079 40.394C48.129 40.4457 48.129 40.4901 48.1502 40.5123C48.3054 40.8377 48.249 41.1631 48.1079 41.4663C47.9879 41.703 47.8468 41.9322 47.7128 42.1689C47.6352 42.2872 47.5364 42.3538 47.4164 42.4499C47.36 42.4943 47.2965 42.4721 47.24 42.376C47.2048 42.3094 47.1413 42.2576 47.0637 42.1911C47.0848 42.0062 47.106 41.8435 47.1272 41.629C47.0637 41.6512 47.0284 41.6512 47.0072 41.6734C46.6685 41.9544 46.3511 42.2576 46.0759 42.6348C45.8572 42.9602 45.8572 43.0268 46.1394 43.3152C46.3369 43.5001 46.5345 43.685 46.732 43.8772C47.0284 44.1583 47.2894 44.4837 47.4023 44.9274C47.4023 44.9496 47.4235 44.9718 47.4447 44.9939C47.5646 44.8978 47.7057 44.8091 47.8186 44.7129C48.4113 44.3357 48.9898 43.9438 49.5825 43.5666C49.8012 43.4261 50.034 43.3078 50.2739 43.219M46.1182 46.4065C46.0406 46.473 45.9771 46.5026 45.9418 46.547C45.5467 46.8946 45.1516 47.2274 44.7706 47.575C44.4531 47.8782 44.178 48.2036 43.8957 48.529C43.7405 48.736 43.6206 48.9727 43.5006 49.2094C43.423 49.3277 43.3807 49.4682 43.4018 49.6531C43.5006 49.6087 43.5994 49.5569 43.677 49.5126C44.3332 49.1132 44.8835 48.5807 45.3633 47.9004C45.6596 47.5084 45.8995 47.0647 46.0759 46.5914C46.0971 46.547 46.0971 46.4952 46.1182 46.4065ZM73.2537 43.0933C73.2537 43.0933 73.2749 43.1377 73.2537 43.1599C73.2325 43.1821 73.2114 43.2042 73.1902 43.2264C72.1389 44.0917 71.0876 44.9792 70.0152 45.8444C67.7786 47.6637 65.535 49.4608 63.2984 51.2875C62.5858 51.8495 61.8943 52.456 61.1747 53.018C60.6808 53.4396 60.1446 53.7871 59.566 54.0682C59.2697 54.2087 58.9522 54.327 58.6135 54.3714C57.9574 54.4379 57.407 54.2087 57.026 53.5283C56.9837 53.4617 56.9273 53.41 56.8708 53.3878C56.391 53.1289 56.0594 52.737 55.7984 52.1971C55.502 51.5463 55.3609 50.8437 55.3045 50.0968C55.1845 48.7434 55.2833 47.3901 55.5232 46.0811C56.2993 41.9248 57.8656 38.2419 60.2575 35.0397C60.9489 34.13 61.725 33.3091 62.621 32.6583C63.4536 32.0519 64.3426 31.6525 65.3162 31.512C65.9724 31.4159 66.6427 31.4677 67.2565 31.7931C67.7504 32.0519 68.1314 32.4439 68.3642 33.0059C68.6394 33.6863 68.8017 34.4037 68.844 35.1802C68.9004 36.393 68.7029 37.5837 68.4066 38.7522C68.2302 39.3586 68.0326 39.9428 67.8139 40.5271C67.7151 40.8303 67.5528 41.0891 67.3976 41.348C67.3623 41.4441 67.2777 41.5107 67.2001 41.5846C67.0448 41.7252 66.8614 41.6808 66.7626 41.4885C66.685 41.348 66.6074 41.2297 66.424 41.2075C66.6638 40.4827 66.7415 39.7875 66.8614 39.0628C67.0166 38.1088 67.1789 37.1474 67.2565 36.1712C67.2918 35.5426 67.2918 34.9065 67.193 34.2779C67.1366 33.9969 67.0378 33.7381 66.9743 33.457C66.932 33.2722 66.8191 33.1982 66.678 33.2204C66.4381 33.2426 66.2052 33.2648 65.9865 33.3165C65.415 33.4792 64.9 33.8342 64.4202 34.204C63.7288 34.766 63.129 35.4168 62.5575 36.1416C61.2876 37.776 60.2998 39.5953 59.4461 41.5846C58.6135 43.5666 57.9362 45.6447 57.5199 47.8412C57.3224 48.9135 57.1601 50.0376 57.2024 51.1544C57.2236 51.4576 57.28 51.783 57.3224 52.0862C57.3435 52.2045 57.3788 52.3228 57.4211 52.4338C57.6822 53.0846 58.0773 53.3434 58.67 53.1585C59.0439 53.018 59.4037 52.8553 59.7636 52.6704C60.7161 52.1601 61.6262 51.5241 62.5011 50.8733C64.3849 49.4238 66.2476 47.9595 68.1314 46.51C69.5354 45.4377 70.9465 44.3875 72.4494 43.4779C72.6681 43.3374 72.8868 43.219 73.0844 43.1081C73.1196 43.0859 73.162 43.0563 73.1831 43.0563C73.2043 43.0563 73.2466 43.0785 73.2466 43.1081M77.3318 43.256C77.3106 43.3078 77.2965 43.3522 77.2753 43.3743C77.1554 43.4705 77.0566 43.5592 76.9367 43.6332C76.5416 43.8698 76.1253 43.9808 75.6878 44.0991C75.4479 44.1657 75.2292 44.2396 74.9964 44.2618C74.8412 44.284 74.7565 44.3801 74.6789 44.5428C74.4178 45.1271 74.1003 45.6891 73.7264 46.1772C73.6276 46.3177 73.5077 46.4582 73.3666 46.5692C73.3101 46.6431 73.2114 46.6875 73.1055 46.6875C72.9856 46.7097 72.8656 46.6653 72.8304 46.5026C72.7528 46.2438 72.6116 46.1033 72.3929 46.0589C72.2165 46.0145 72.0754 45.874 72.019 45.6595C71.9414 45.4746 71.899 45.2602 71.8779 45.0753C71.8214 44.5576 71.899 44.0473 72.0543 43.5814C72.0966 43.4409 72.0966 43.3448 72.0331 43.2338C71.8708 42.9306 71.8708 42.6274 71.892 42.302C72.0331 41.1853 72.9432 39.8541 74.2485 39.7802C74.312 39.7802 74.3896 39.7801 74.4461 39.8023C74.7636 39.8245 74.9823 39.9872 75.1587 40.2904C75.3351 40.638 75.4197 41.0152 75.4338 41.4072C75.455 42.0136 75.3351 42.5978 75.1728 43.1599C75.1305 43.3669 75.0528 43.5592 74.9752 43.7885C75.2151 43.7441 75.4338 43.6923 75.6314 43.648C76.0265 43.5518 76.4216 43.4631 76.8167 43.3448C76.9578 43.3226 77.0778 43.2708 77.1907 43.2264C77.2118 43.2264 77.2683 43.2486 77.3106 43.2486M75.0176 41.6438C75.0387 41.2666 74.9752 40.919 74.82 40.5715C74.7636 40.4531 74.7001 40.4088 74.5801 40.4309C74.4602 40.4531 74.3191 40.4753 74.2062 40.5493C73.7899 40.7564 73.4512 41.1113 73.1972 41.5772C73.1196 41.7399 73.042 41.9026 72.9574 42.0875C73.1761 42.0432 73.3525 42.0432 73.5359 41.9914C73.7335 41.9692 73.9098 42.0579 74.051 42.1541C74.0862 42.2946 74.1286 42.3907 74.1709 42.5017C74.2344 42.6422 74.2344 42.7827 74.1709 42.9232C74.1356 43.0415 74.0721 43.1303 74.0298 43.2264C73.931 43.4335 73.8322 43.6702 73.7335 43.929H74.2485C74.3473 43.929 74.4037 43.8846 74.4672 43.7663C74.6436 43.3669 74.8059 42.975 74.8835 42.5534C74.947 42.2502 74.9823 41.947 75.0246 41.6438M74.0651 44.4689H73.5712C73.4512 44.7721 73.3313 45.2602 73.3313 45.4746C73.6065 45.1714 73.8675 44.846 74.0651 44.4689ZM76.3017 44.5576C76.4781 44.6538 76.4992 44.8165 76.4781 45.0235C76.4004 45.7261 76.4004 46.3991 76.4569 47.0795C76.5345 47.782 76.6756 48.4328 76.9931 49.0171C77.1695 49.3203 77.367 49.5791 77.6634 49.7418C77.7622 49.7862 77.8398 49.8823 77.9033 49.9785C78.1432 50.4222 78.4959 50.6071 78.9334 50.6071C79.2297 50.6071 79.526 50.511 79.7871 50.3483C80.0481 50.1634 80.3021 49.9489 80.542 49.7196C81.1347 49.1576 81.6286 48.5068 82.0872 47.782C82.1295 47.7377 82.1648 47.6637 82.2283 47.575C82.2495 47.6933 82.2706 47.7377 82.2918 47.8116C82.3694 48.1888 82.4682 48.5586 82.6305 48.9061C82.7504 49.1872 82.9268 49.4164 83.1667 49.5865C83.2231 49.6309 83.2654 49.6827 83.3078 49.727C83.6253 50.2151 84.0416 50.2595 84.5002 49.8675C84.6554 49.7048 84.8177 49.5421 84.9729 49.3351C85.3327 48.8913 85.6502 48.4032 85.9254 47.8634C86.6239 46.5988 87.3153 45.2972 88.0067 44.0103C88.1055 43.8255 88.2043 43.5888 88.2819 43.3817C88.3172 43.3152 88.3172 43.2634 88.2396 43.219C88.1831 43.2856 88.0985 43.3817 88.042 43.4779C87.8656 43.7367 87.7034 43.9956 87.5481 44.2692C86.9555 45.275 86.3769 46.2734 85.8054 47.2791C85.4879 47.8116 85.1493 48.3515 84.7542 48.8174C84.5778 49.0245 84.3943 49.2094 84.1756 49.4016C83.9004 49.6383 83.7593 49.5865 83.5829 49.2833C83.5477 49.2094 83.5053 49.1428 83.4842 49.0984C83.4277 48.8913 83.3642 48.6991 83.3289 48.5142C83.1878 47.5824 83.2302 46.6505 83.3289 45.6891C83.3289 45.6226 83.3713 45.5486 83.4066 45.482C84.3802 43.5222 85.248 41.5107 86.0242 39.44C86.5604 37.9905 87.0754 36.5483 87.4917 35.0249C87.6328 34.5368 87.7527 34.0191 87.7669 33.5088C87.788 33.3461 87.7669 33.1834 87.7245 33.0207C87.6469 32.7175 87.4846 32.5992 87.2095 32.5992C86.772 32.577 86.3981 32.7397 86.1018 33.1316C85.9042 33.3683 85.7067 33.6197 85.5514 33.9008C85.2904 34.3445 85.0575 34.7882 84.8177 35.2763C83.7664 37.5171 83.0326 39.8985 82.5176 42.3464C82.2212 43.6332 82.059 44.9644 82.1013 46.2881C82.1225 46.3547 82.0801 46.4508 82.0448 46.4952C81.5086 47.3827 80.916 48.174 80.1822 48.8544C79.907 49.1354 79.5895 49.3647 79.2509 49.5348C78.891 49.7196 78.6794 49.6531 78.4395 49.2981C78.2772 49.0614 78.1996 48.7804 78.1643 48.4772C78.1008 47.9891 78.122 47.4714 78.1643 46.9611C78.2631 45.7261 78.4818 44.5132 78.7993 43.3004C78.8346 43.1821 78.8769 43.0637 78.9545 42.9528C79.7448 41.9988 80.4997 40.993 81.1911 39.9428C81.805 39.011 82.4047 38.0496 82.8562 36.9995C83.0538 36.5557 83.2161 36.112 83.3148 35.6461C83.4136 35.2024 83.4559 34.7808 83.2937 34.3593C83.2584 34.1966 83.1737 34.0561 83.0326 33.9821C82.8915 33.9156 82.7363 33.8416 82.5811 33.8416C82.0872 33.8194 81.6074 33.9599 81.1911 34.2853C80.9512 34.448 80.7396 34.6551 80.535 34.8696C79.9776 35.4538 79.526 36.1564 79.1098 36.8737C77.8186 39.1885 76.9649 41.703 76.5345 44.3949C76.431 44.4245 76.3581 44.4787 76.3158 44.5576M82.3271 36.1564C82.186 36.7628 81.932 37.347 81.6568 37.9091C81.0782 39.0258 80.3868 40.0538 79.653 41.0596C79.5543 41.2001 79.4766 41.3184 79.3779 41.4367C79.3779 41.4367 79.3591 41.4515 79.3214 41.4811C79.3426 41.4367 79.3426 41.385 79.3567 41.3628C79.8718 39.7062 80.5491 38.1384 81.3957 36.6445C81.6568 36.2007 81.9108 35.7792 82.2706 35.4094C82.313 35.3355 82.3694 35.2911 82.4258 35.2467L82.447 35.2689C82.447 35.5721 82.4047 35.8532 82.3271 36.1564ZM86.8073 34.7808C86.6098 35.831 86.3134 36.8146 85.9959 37.813C85.3821 39.6544 84.6483 41.4515 83.8369 43.2042C83.8017 43.2708 83.7593 43.3226 83.7382 43.3891C83.7382 43.3891 83.7264 43.4039 83.7029 43.4335C83.7241 42.9676 84.4367 40.3718 85.0082 38.6708C85.6432 36.7998 86.6168 34.4924 86.9273 34.1152C86.8849 34.3741 86.8496 34.5811 86.8073 34.766M93.4889 43.3448C93.4677 43.4409 93.4677 43.4853 93.4254 43.5296C93.3689 43.648 93.2843 43.7367 93.2067 43.8107C92.3953 44.602 91.6403 45.4673 90.8854 46.3325C90.6667 46.5692 90.4127 46.7762 90.1728 46.9833C89.9541 47.146 89.7001 47.2643 89.439 47.3309C89.0439 47.427 88.7052 47.2643 88.4654 46.8872C88.3877 46.7689 88.3242 46.7023 88.2255 46.6505C87.7528 46.3473 87.4705 45.8814 87.3717 45.275C87.2518 44.5946 87.3153 43.9438 87.4705 43.293C87.7457 42.1985 88.2466 41.2592 88.9592 40.4901C89.3967 40.002 89.9329 39.8393 90.5044 39.8393C90.7231 39.8393 90.9207 39.9355 91.0759 40.0464C91.1535 40.1129 91.217 40.2091 91.2734 40.3274C91.471 40.7933 91.471 41.2814 91.3722 41.7769C91.3087 42.1245 91.1958 42.4573 91.0336 42.7531C90.836 43.1525 90.5961 43.5222 90.2998 43.8476C90.1446 44.0325 89.9611 44.1952 89.7424 44.247C89.5025 44.3136 89.305 44.2692 89.1497 44.0621C89.1286 44.0399 89.1074 44.0399 89.0933 44.0177C89.0721 44.0399 89.051 44.0399 89.051 44.0621C88.8957 44.5058 88.7546 44.9718 88.6911 45.4599C88.6559 45.7631 88.6559 46.0441 88.8322 46.3029C89.0086 46.5618 89.185 46.6505 89.4461 46.5396C89.6225 46.473 89.7988 46.3769 89.9611 46.2586C90.2222 46.0737 90.4338 45.8592 90.6737 45.6521C91.3299 45.0235 91.979 44.3653 92.6352 43.7367C92.7763 43.6184 92.9103 43.5001 93.0514 43.4113C93.1714 43.3448 93.3125 43.293 93.4677 43.3448M89.4813 43.0415C89.4813 43.0415 89.5025 43.0933 89.5237 43.0933C89.7424 42.8123 89.9188 42.5091 90.0387 42.1615C90.0387 42.1393 90.0176 42.1393 89.9964 42.1393C89.8412 42.4425 89.6577 42.7457 89.4813 43.0489M98.7382 43.2042C98.7946 43.2708 98.7734 43.3226 98.7382 43.3669C98.6182 43.5075 98.4983 43.6702 98.3783 43.8107C97.821 44.3949 97.2706 44.957 96.6921 45.5412C96.3322 45.9406 95.9583 46.3103 95.5844 46.6875C95.3656 46.9242 95.1258 47.109 94.8859 47.2939C94.6671 47.4788 94.4343 47.575 94.1733 47.575C93.9334 47.5528 93.7358 47.4566 93.5947 47.1978C93.5594 47.1016 93.4959 47.0573 93.3972 47.0129C93.1784 46.8946 93.0232 46.6653 92.9033 46.4065C92.7269 46.0071 92.6422 45.5634 92.6069 45.0975C92.4658 43.7885 92.7057 42.5313 93.1996 41.3406C93.4959 40.638 93.891 40.0094 94.3708 39.4695C94.7659 39.0258 95.2245 38.8187 95.7607 38.8187C95.9795 38.8187 96.177 38.8927 96.3322 39.0258C96.4098 39.0702 96.4522 39.1663 96.4875 39.2625C96.685 39.7062 96.7273 40.1943 96.6074 40.6898C96.4875 41.2518 96.2899 41.7621 96.0147 42.228C95.9724 42.3242 95.916 42.4129 95.796 42.4129C95.7184 42.2946 95.6761 42.1541 95.535 42.1319C95.4926 42.1319 95.4574 42.0136 95.4574 41.947C95.4574 41.7843 95.4574 41.6438 95.4785 41.4811C95.5138 41.2223 95.535 40.9708 95.5773 40.712V40.5049C95.5138 40.5493 95.4785 40.5715 95.4574 40.6232C95.2598 40.9708 95.0199 41.3036 94.8435 41.6512C94.3073 42.7457 93.9122 43.9364 93.7499 45.201C93.6935 45.5486 93.6723 45.9036 93.7288 46.229C93.7499 46.3917 93.7852 46.5322 93.8275 46.6727C93.9263 46.9094 94.145 47.0203 94.3638 46.9537C94.5401 46.9094 94.7236 46.8132 94.8788 46.6949C95.1751 46.4582 95.4715 46.229 95.7537 45.948C96.424 45.3193 97.059 44.639 97.7151 44.0103C97.9762 43.7515 98.2725 43.5222 98.5477 43.3078C98.5829 43.256 98.6676 43.2338 98.7241 43.2116M104.905 37.066C104.982 37.0882 105.046 37.1622 105.102 37.2065V37.2509H104.827C104.333 37.3175 103.839 37.3692 103.338 37.4358C103.021 37.458 102.725 37.4802 102.407 37.5023C102.308 37.5023 102.252 37.5467 102.188 37.665C101.116 40.0908 100.128 42.5904 99.3732 45.1788C99.1756 45.8814 98.9781 46.6062 98.8793 47.3235C98.8369 47.6045 98.8228 47.8856 98.8369 48.1444C98.8369 48.5659 98.9781 48.6325 99.2744 48.4254C99.4508 48.3071 99.6342 48.1444 99.7894 47.9595C100.382 47.1904 100.975 46.3991 101.574 45.6004C102.033 44.9939 102.485 44.3357 102.964 43.7071C103.127 43.5001 103.303 43.2856 103.501 43.1229C103.599 43.219 103.564 43.2856 103.522 43.3595C103.402 43.5962 103.261 43.8255 103.127 44.0399C102.767 44.5724 102.414 45.0901 102.054 45.6004C101.574 46.3029 101.102 46.9981 100.629 47.7007C100.431 47.9817 100.234 48.2627 100.015 48.5142C99.86 48.7213 99.6554 48.8618 99.4578 49.0319C99.3591 49.0984 99.2391 49.128 99.1403 49.1502C98.9004 49.2167 98.7241 49.128 98.5829 48.8692C98.5618 48.8026 98.5053 48.7286 98.4418 48.7065C98.1667 48.5881 97.9832 48.3589 97.8845 48.0261C97.828 47.7894 97.7645 47.538 97.7292 47.2791C97.6516 46.5544 97.7081 45.8074 97.7857 45.0827C98.0256 43.2634 98.5194 41.5329 99.1544 39.8541C99.3732 39.2477 99.6272 38.6634 99.8671 38.0792C99.9023 37.9831 99.9235 37.9165 99.9658 37.8204C99.7683 37.8425 99.613 37.8647 99.4296 37.8869C99.0698 37.9535 98.6958 38.0052 98.336 38.0496C98.2584 38.0718 98.1596 38.0718 98.0608 38.0496C97.9056 38.0496 97.7857 38.0274 97.7222 37.813C97.6657 37.6503 97.5458 37.5541 97.3835 37.5097C97.3412 37.5097 97.3059 37.4876 97.2283 37.4432C97.3059 37.3988 97.3482 37.347 97.4047 37.3249C97.4823 37.3027 97.5599 37.2731 97.6446 37.2731C98.5194 37.177 99.3661 37.0143 100.241 36.9921C100.361 36.9921 100.382 36.9255 100.439 36.8294C100.636 36.43 100.812 36.0159 101.031 35.6165C101.37 34.9879 101.723 34.3815 102.082 33.7676C102.146 33.6715 102.202 33.6049 102.259 33.531C102.301 33.4866 102.358 33.4348 102.4 33.4348C102.576 33.4127 102.739 33.3683 102.915 33.3683C103.091 33.3461 103.233 33.4644 103.374 33.531C103.409 33.6715 103.472 33.7676 103.494 33.8786C103.515 34.0413 103.536 34.204 103.515 34.3445C103.458 34.5811 103.395 34.8104 103.317 35.0249C103.12 35.5352 102.901 36.0307 102.682 36.5409C102.64 36.6371 102.605 36.7036 102.583 36.7998C102.661 36.8663 102.725 36.822 102.802 36.822C103.338 36.7998 103.853 36.7998 104.39 36.8959C104.566 36.9181 104.749 36.9921 104.905 37.0364M106.273 46.2438C106.076 46.4287 105.9 46.6431 105.695 46.828C105.335 47.1534 104.94 47.4566 104.51 47.6415C104.312 47.7377 104.093 47.782 103.875 47.7598C103.656 47.7377 103.458 47.6415 103.338 47.4123C103.296 47.3679 103.261 47.2939 103.197 47.2717C102.922 47.1312 102.76 46.8724 102.661 46.5692C102.463 46.0071 102.421 45.4525 102.485 44.8682C102.583 43.9808 102.88 43.1895 103.24 42.4425C103.416 42.0949 103.599 41.7621 103.818 41.4811C103.973 41.274 104.171 41.2223 104.368 41.2223C104.432 41.2001 104.488 41.2223 104.566 41.2001C104.644 41.2001 104.742 41.2223 104.827 41.2962C104.905 41.348 104.926 41.4367 104.968 41.5033C105.109 41.7621 105.046 41.9914 104.947 42.228C104.771 42.694 104.552 43.1599 104.368 43.6258C104.129 44.2544 103.91 44.8608 103.698 45.4894C103.578 45.837 103.522 46.192 103.522 46.5618C103.543 47.0499 103.719 47.2422 104.114 47.1682C104.27 47.146 104.432 47.0721 104.573 47.0055C104.968 46.8206 105.307 46.5396 105.624 46.2364C106.358 45.4894 107.092 44.7647 107.804 44.0177C108.023 43.7811 108.242 43.574 108.461 43.3374C108.482 43.3152 108.496 43.293 108.538 43.2634C108.616 43.3595 108.559 43.4261 108.517 43.4705C108.298 43.8181 108.101 44.1509 107.861 44.4763C107.381 45.1049 106.831 45.6669 106.273 46.229M104.961 39.7284C104.884 39.5213 104.884 39.3068 104.926 39.0998C104.961 38.9593 104.982 38.8409 105.025 38.7078C105.102 38.3602 105.18 37.9831 105.265 37.6133C105.307 37.4284 105.363 37.2657 105.526 37.1917C105.624 37.1474 105.723 37.1178 105.822 37.1178C105.921 37.0956 105.998 37.0956 106.097 37.1178C106.175 37.1178 106.252 37.1696 106.337 37.1917C106.393 37.2361 106.436 37.3101 106.492 37.3988C106.633 37.702 106.535 37.9609 106.415 38.2123C106.238 38.5895 106.076 39.0036 105.9 39.3808C105.822 39.5657 105.723 39.7506 105.624 39.9428C105.547 40.0612 105.448 40.1277 105.363 40.1277C105.222 40.0094 105.145 39.9428 105.046 39.8689C105.025 39.8245 104.982 39.7728 104.968 39.7284M113.23 43.256C113.209 43.3078 113.195 43.3522 113.174 43.3743C113.054 43.4705 112.955 43.5592 112.835 43.6332C112.44 43.8698 112.024 43.9808 111.586 44.0991C111.346 44.1657 111.128 44.2396 110.895 44.2618C110.74 44.284 110.655 44.3801 110.577 44.5428C110.316 45.1271 110.006 45.6891 109.625 46.1772C109.526 46.3177 109.406 46.4582 109.265 46.5692C109.209 46.6431 109.11 46.6875 109.004 46.6875C108.884 46.7097 108.764 46.6653 108.729 46.5026C108.651 46.2438 108.51 46.1033 108.291 46.0589C108.115 46.0145 107.974 45.874 107.917 45.6595C107.84 45.4746 107.797 45.2602 107.776 45.0753C107.72 44.5576 107.797 44.0473 107.953 43.5814C107.995 43.4409 107.995 43.3448 107.931 43.2338C107.776 42.9306 107.776 42.6274 107.79 42.302C107.931 41.1853 108.842 39.8541 110.147 39.7802C110.203 39.7802 110.288 39.7801 110.344 39.8023C110.662 39.8245 110.881 39.9872 111.057 40.2904C111.233 40.638 111.318 41.0152 111.332 41.4072C111.353 42.0136 111.233 42.5978 111.071 43.1599C111.036 43.3669 110.951 43.5592 110.874 43.7885C111.114 43.7441 111.332 43.6923 111.53 43.648C111.925 43.5518 112.32 43.4631 112.722 43.3448C112.863 43.3226 112.983 43.2708 113.096 43.2264C113.117 43.2264 113.174 43.2486 113.216 43.2486M110.909 41.6438C110.93 41.2666 110.867 40.919 110.711 40.5715C110.648 40.4531 110.591 40.4088 110.471 40.4309C110.352 40.4531 110.21 40.4753 110.098 40.5493C109.681 40.7564 109.343 41.1113 109.089 41.5772C109.011 41.7399 108.933 41.9026 108.849 42.0875C109.067 42.0432 109.244 42.0432 109.42 41.9914C109.618 41.9692 109.794 42.0579 109.935 42.1541C109.971 42.2946 110.013 42.3907 110.055 42.5017C110.119 42.6422 110.119 42.7827 110.055 42.9232C110.02 43.0415 109.956 43.1303 109.914 43.2264C109.815 43.4335 109.717 43.6702 109.618 43.929H110.133C110.232 43.929 110.288 43.8846 110.352 43.7663C110.528 43.3669 110.69 42.975 110.768 42.5534C110.824 42.2502 110.867 41.947 110.909 41.6438ZM109.956 44.4689H109.463C109.343 44.7721 109.223 45.2602 109.223 45.4746C109.498 45.1714 109.759 44.846 109.956 44.4689ZM119.989 43.1821C120.011 43.2264 119.989 43.3226 119.968 43.3669C119.912 43.4631 119.848 43.574 119.771 43.6702C119.333 44.21 118.896 44.7203 118.465 45.2306C118.268 45.4673 118.028 45.63 117.795 45.6965C117.64 45.7705 117.456 45.7705 117.301 45.6965C117.259 45.6521 117.202 45.6521 117.16 45.6004C116.963 45.2528 116.666 45.0679 116.49 44.6685C116.335 44.247 116.229 43.8033 116.193 43.3374C116.172 43.0341 116.158 42.7531 116.137 42.4055C116.017 42.5239 115.939 42.5904 115.841 42.6866C115.17 43.3891 114.634 44.321 114.176 45.3489C113.999 45.7261 113.837 46.0959 113.682 46.4952C113.661 46.5618 113.625 46.6357 113.583 46.7319C113.527 46.8946 113.428 46.9685 113.287 46.8946C113.23 46.7097 113.167 46.547 113.11 46.3843C113.033 46.1772 112.87 46.1254 112.736 46.0811C112.461 45.9406 112.376 45.8222 112.362 45.3785C112.306 44.0473 112.482 42.7901 112.92 41.6216C112.976 41.4367 113.061 41.2962 113.138 41.1335C113.237 40.993 113.357 40.9264 113.498 40.8747C113.675 40.8007 113.872 40.8007 114.056 40.8007C114.176 40.7785 114.296 40.8007 114.394 40.9191C114.437 40.9634 114.493 40.9856 114.535 41.0152C114.578 41.1779 114.634 41.3184 114.655 41.4811C114.698 41.6438 114.712 41.8287 114.698 41.9988C114.634 42.3686 114.557 42.7457 114.5 43.1155C114.479 43.2338 114.458 43.3522 114.479 43.4631C114.521 43.4187 114.578 43.3448 114.62 43.2782C114.994 42.8123 115.375 42.3242 115.749 41.8583C115.947 41.5994 116.165 41.5329 116.405 41.5551C116.645 41.5551 116.8 41.7178 116.899 42.0432C117.019 42.4869 117.019 42.9306 117.04 43.3965C117.061 43.7219 117.082 44.0769 117.097 44.4023C117.097 44.5428 117.139 44.6611 117.174 44.7721C117.252 45.0975 117.471 45.2898 117.71 45.2602C117.929 45.2158 118.148 45.0975 118.324 44.9348C118.543 44.7277 118.762 44.4911 118.959 44.2544C119.178 43.9956 119.397 43.7441 119.615 43.4853C119.714 43.3669 119.813 43.2782 119.912 43.2042C119.954 43.1599 119.989 43.0859 120.032 43.1821" fill="var(--fill-0, #73727E)"/>
</g>
</svg>
