<svg preserveAspectRatio="none" width="100%" height="100%" overflow="visible" style="display: block;" viewBox="0 0 120 20" fill="none" xmlns="http://www.w3.org/2000/svg">
<g id="Layer 1">
<path id="Vector" d="M41.2727 9.69492C41.2727 4.38823 37.8726 0.158747 28.7219 0.137689C28.709 0.137689 28.7009 0.137689 28.6895 0.137689C28.6766 0.137689 28.6685 0.137689 28.6571 0.137689C19.5049 0.160367 16.1031 4.38823 16.1031 9.69492C16.1031 15.0016 19.2084 19.2311 28.6571 19.2489V19.2522C28.6685 19.2522 28.6749 19.2505 28.6895 19.2505C28.7009 19.2505 28.709 19.2522 28.7219 19.2522V19.2489C38.1706 19.2311 41.2727 14.9789 41.2727 9.69492ZM28.7057 18.4681C20.2986 18.4649 19.372 14.8283 19.372 9.69492C19.372 4.56156 21.6091 0.937905 28.6766 0.921706C35.7635 0.928186 38.007 4.5648 38.007 9.69654C38.007 14.8283 37.0821 18.4536 28.7073 18.4681M120 0.280238V0.62851L118.539 0.814795C118.346 0.839093 118.346 0.980022 118.346 1.37527V18.5572C118.346 18.5572 118.346 18.9071 118.153 18.9071C117.891 18.9071 117.436 18.2073 117.436 18.2073L107.252 3.75V17.8121C107.252 18.2073 107.252 18.3499 107.444 18.371L108.907 18.5572V18.9071H104.499V18.5572L105.962 18.371C106.152 18.3499 106.152 18.2073 106.152 17.8121V1.70086C106.152 0.933045 106.152 0.861771 105.983 0.814795L104.499 0.62851V0.280238H108.115L117.246 13.4838V1.37527C117.246 0.980022 117.246 0.839093 117.052 0.814795L115.591 0.62851V0.280238H120ZM101.94 0.332073V0.680346L100.479 0.865011C100.288 0.889309 100.288 1.03024 100.288 1.42225V17.8153C100.288 18.2106 100.288 18.3515 100.479 18.3726L101.94 18.5589V18.9087H95.9984V18.5589L97.4595 18.3726C97.6523 18.3515 97.6523 18.2106 97.6523 17.8153V1.42225C97.6523 1.02862 97.6523 0.887689 97.4595 0.865011L95.9984 0.680346V0.332073H101.94ZM76.338 0.335313C80.6226 0.12635 84.1458 0.12635 84.3386 0.12635C90.3045 0.12635 93.4212 4.55994 93.6382 9.13445C93.852 13.9649 90.8342 18.9087 84.5313 18.9087H76.3396V18.5605L77.7975 18.3742C77.9903 18.3515 77.9903 18.2138 77.9903 17.817V1.42711C77.9903 1.03024 77.9903 0.894169 77.7975 0.866631L76.3396 0.681965V0.335313H76.338ZM80.6226 17.0961C80.6226 18.3969 82.1128 18.3726 82.1128 18.3726C82.1128 18.3726 83.4055 18.4908 84.7727 18.3726C88.7721 18.0486 90.6625 13.5211 90.426 9.13283C90.2333 5.37311 88.4611 1.74946 85.1048 0.937905C85.1048 0.937905 83.9546 0.542657 80.6226 0.845572V17.0961ZM74.9336 18.5718V18.9201H68.9919V18.5718L70.453 18.3855C70.6442 18.3645 70.6442 18.2252 70.4757 17.8283L68.7505 13.0578H62.8332L61.1371 17.9222C61.0351 18.2009 61.1371 18.3645 61.3267 18.3855L62.7846 18.5718V18.9201H58.1614V18.5718L59.6242 18.3855C59.817 18.3645 59.9109 18.2252 60.0065 17.9222L66.2365 0.302916L66.6431 0L73.1631 17.8283C73.304 18.2252 73.4012 18.3855 73.6604 18.4114L74.9336 18.5734V18.5718ZM68.4865 12.3126L65.7554 4.74784L63.0972 12.3126H68.4849H68.4865ZM56.9579 13.9455C56.8137 14.804 56.7894 16.0335 56.7894 16.7738C56.7894 17.8396 56.9579 18.9071 56.9579 18.9071H42.7711V18.5589L44.2354 18.3726C44.4249 18.3515 44.4249 18.2106 44.4249 17.817V1.44654C44.4249 1.05454 44.4249 0.913607 44.2354 0.889309L42.7711 0.704644V0.356372H48.7144V0.704644L47.2565 0.889309C47.0621 0.913607 47.0621 1.05292 47.0621 1.44654V17.493C47.0621 17.9109 47.1091 18.0956 47.3002 18.1895C47.493 18.2819 48.1409 18.3726 49.6004 18.3726C55.709 18.3726 56.0248 16.7721 56.6452 13.9438H56.9579V13.9455ZM0 0.323974L5.96598 0.136069C9.22516 0.0421166 12.4827 0.87959 12.4827 4.47894C12.4827 8.07829 9.84881 9.07613 7.81263 9.33045C9.31911 9.49244 11.5497 11.1431 11.9109 14.2063C12.2932 18.1766 14.3537 18.5491 16.7738 18.5491L16.5842 18.8958C11.5513 20.1512 9.87149 18.1539 9.32073 16.0189C8.81695 14.0686 9.49082 10.2133 5.77646 9.49406C5.22408 9.38067 4.29104 9.49406 4.29104 9.49406V17.8072C4.29104 18.2009 4.29104 18.3402 4.48218 18.3596L5.94492 18.5491V18.8958H0V18.5491L1.46112 18.3596C1.65389 18.3402 1.65389 18.2009 1.65389 17.8072V1.41577C1.65389 1.02052 1.65389 0.87959 1.46112 0.856911L0 0.672246V0.323974ZM4.29104 8.61123H5.22408C9.13121 8.61123 9.49244 6.61393 9.49244 4.64255C9.49082 0.463283 6.30292 0.438985 4.29104 0.856911V8.61123Z" fill="var(--fill-0, #73727E)"/>
</g>
</svg>
