<svg preserveAspectRatio="none" width="100%" height="100%" overflow="visible" style="display: block;" viewBox="0 0 120 45" fill="none" xmlns="http://www.w3.org/2000/svg">
<g id="Group">
<path id="Vector" d="M15.1462 9.75605C14.5378 9.75605 13.8875 9.91502 13.3631 10.1588L13.6043 11.6319C14.0029 11.5154 14.328 11.4571 14.6112 11.4571C15.4504 11.4571 15.8857 11.9605 15.8857 12.8613C15.8857 14.9068 14.5273 16.3216 12.4453 16.4382L12.0362 9.77195L10.2793 9.97331L10.7618 18.1869C10.9453 18.2028 11.1132 18.2134 11.3806 18.2134C15.2091 18.2134 17.6845 16.0249 17.6845 12.6176C17.6845 10.8265 16.7353 9.75605 15.1462 9.75605Z" fill="var(--fill-0, #73727E)"/>
<path id="Vector_2" d="M18.9852 9.94152V11.5842H20.118V14.7637H21.9274V9.94152H18.9852Z" fill="var(--fill-0, #73727E)"/>
<path id="Vector_3" d="M27.99 16.5813C26.8677 16.5813 26.2331 15.5957 26.2331 13.9794C26.2331 12.962 26.4901 12.13 26.8415 11.563H27.8222C29.3117 11.563 29.8309 12.1036 29.8309 13.7092C29.8309 15.5427 29.1491 16.5866 27.99 16.5866M28.0635 9.94152H23.7997V11.5577H25.0583C24.5916 12.3844 24.3661 13.2005 24.3661 14.2179C24.3661 16.6661 25.6982 18.224 27.8642 18.224C30.2137 18.224 31.7032 16.4223 31.7032 13.5714C31.7032 11.0967 30.5441 9.93622 28.0635 9.93622" fill="var(--fill-0, #73727E)"/>
<path id="Vector_4" d="M38.757 12.803C38.7308 10.8159 37.9232 9.94152 36.0404 9.94152H32.9828V11.5842H35.474C36.6068 11.5842 36.932 11.9287 36.9477 13.2747C36.9634 13.8152 36.9634 14.4458 36.9634 15.0764C36.9634 16.3216 36.9477 17.5351 36.9477 18.0227H38.7623C38.7623 17.3921 38.778 15.7599 38.778 14.3292C38.778 13.741 38.778 13.2005 38.7623 12.7977" fill="var(--fill-0, #73727E)"/>
<path id="Vector_5" d="M46.2043 16.3799C46.2043 15.9931 46.2305 14.7637 46.2305 13.9741C46.2305 13.5184 46.2305 13.1157 46.2148 12.7447C46.1571 10.8 45.3651 9.94152 43.5243 9.94152H40.7028V11.5842H42.9264C44.0593 11.5842 44.3687 11.9287 44.4106 13.2747C44.4264 13.8629 44.4264 14.6471 44.4264 15.5639V16.3799H40.5035L40.3356 18.0227H47.0749L47.3843 16.3799H46.1938H46.2043Z" fill="var(--fill-0, #73727E)"/>
<path id="Vector_6" d="M47.8458 9.94152V11.5842H48.9786V14.7637H50.7932V9.94152H47.8458Z" fill="var(--fill-0, #73727E)"/>
<path id="Vector_7" d="M56.4468 16.4117L56.2213 9.94152H52.7809V11.5842H54.4696L54.6532 16.3799H52.2302L52.0467 18.0227H56.3105C56.3682 17.5616 56.4678 16.9363 56.4521 16.4064" fill="var(--fill-0, #73727E)"/>
<path id="Vector_8" d="M58.1408 9.94152V11.5842H59.389V18.028H61.2036V9.94152H58.1408Z" fill="var(--fill-0, #73727E)"/>
<path id="Vector_9" d="M70.8064 11.4889C70.8064 11.0172 70.6228 10.6993 70.1823 10.429C69.8414 10.2012 69.3589 9.98921 68.6509 9.72956L67.9009 11.0914C68.2418 11.3193 68.5093 11.4783 68.7505 11.6213C68.9498 11.7644 69.018 11.8651 69.018 12.0506C69.018 12.3791 68.7925 13.1369 68.2837 14.467L64.429 9.64477L63.0969 10.747L64.0619 11.9499C63.6266 13.6562 63.3014 15.8712 63.2805 16.8145L63.2647 18.028H64.9797L65.1213 13.2747L69.2592 18.4519L70.5756 17.3232L69.1596 15.548C70.1927 13.8311 70.8011 12.342 70.8011 11.4836" fill="var(--fill-0, #73727E)"/>
<path id="Vector_10" d="M3.38796 11.3246H1.84083C1.8251 11.4041 1.80936 11.4889 1.79887 11.5895C1.65203 12.5434 1.49993 14.3292 1.49993 15.2088C1.51567 15.6963 1.52616 16.0673 1.55762 16.4117C1.45798 16.4276 1.2482 16.4276 0.933526 16.4276C0.681788 16.4276 0.44054 16.4276 0.183558 16.4117L-2.32184e-10 18.028C0.424807 18.028 0.839124 18.0438 1.3898 18.0438C1.94047 18.0438 2.44395 18.028 3.13623 18.0015C3.19392 17.4292 3.27783 16.7721 3.29356 16.2845C3.25161 15.654 3.20965 14.8114 3.20965 14.0377C3.20965 13.5449 3.28307 12.3102 3.36699 11.5895C3.37747 11.4889 3.38796 11.4041 3.39845 11.3246M8.34929 12.8772C8.32306 10.8583 7.45772 9.94152 5.56969 9.94152H0.435296V11.5842H5.11866C6.30916 11.5842 6.53468 11.9552 6.5609 13.2747C6.57664 13.8311 6.59237 14.4299 6.59237 15.0764C6.59237 16.1097 6.5609 17.2225 6.5609 18.0227H8.33355C8.35977 17.2755 8.37551 16.1044 8.37551 14.9333C8.37551 14.2179 8.35977 13.4919 8.34929 12.8719" fill="var(--fill-0, #73727E)"/>
<path id="Vector_11" d="M25.5146 23.5125V25.1553H26.7209V33.4854H28.5197V23.5125H25.5146Z" fill="var(--fill-0, #73727E)"/>
<path id="Vector_12" d="M37.6977 23.5125V25.1553H38.8305V28.3347H40.6398V23.5125H37.6977Z" fill="var(--fill-0, #73727E)"/>
<path id="Vector_13" d="M50.1429 25.0599C50.1429 24.5882 49.9594 24.2703 49.5188 24C49.1779 23.7722 48.7007 23.5602 47.9874 23.3006L47.2374 24.6571C47.5783 24.885 47.8458 25.044 48.0871 25.187C48.2864 25.3301 48.3545 25.4308 48.3545 25.6163C48.3545 25.9448 48.129 26.7026 47.6203 28.0327L43.7656 23.2105L42.4335 24.3127L43.3985 25.5156C42.9579 27.2166 42.6328 29.4369 42.617 30.3802L42.6013 31.5937H44.311L44.4526 26.8404L48.5905 32.0176L49.9069 30.8836L48.4909 29.1084C49.5241 27.3915 50.1377 25.9024 50.1377 25.044" fill="var(--fill-0, #73727E)"/>
<path id="Vector_14" d="M51.5694 23.5125L51.3859 25.1288H55.2406L55.4242 23.5125H51.5694Z" fill="var(--fill-0, #73727E)"/>
<path id="Vector_15" d="M62.9081 26.374C62.8819 24.3869 62.0742 23.5125 60.1914 23.5125H57.1339V25.1553H59.625C60.7578 25.1553 61.083 25.4997 61.0935 26.8457C61.1092 27.3862 61.1092 28.0168 61.1092 28.6474C61.1092 29.8927 61.0935 31.1061 61.0935 31.5937H62.9081C62.9081 30.9631 62.9238 29.3309 62.9238 27.9002C62.9238 27.312 62.9238 26.7715 62.9081 26.3687" fill="var(--fill-0, #73727E)"/>
<path id="Vector_16" d="M70.3553 29.9509C70.3553 29.5641 70.3868 28.3347 70.3868 27.5504C70.3868 27.0894 70.3868 26.692 70.371 26.3211C70.3134 24.371 69.5214 23.5178 67.6806 23.5178H64.8643V25.1605H67.088C68.2208 25.1605 68.5355 25.505 68.5774 26.851C68.5932 27.4392 68.5932 28.2234 68.5932 29.1402V29.9509H64.6703L64.5024 31.599H71.2416L71.5511 29.9509H70.3606H70.3553Z" fill="var(--fill-0, #73727E)"/>
<path id="Vector_17" d="M30.5808 30.5232C33.2293 28.1492 34.4356 26.8722 34.4356 25.6428C34.4356 25.3884 34.4198 25.2718 34.3779 25.1553H30.7539C30.4969 24.1696 30.2714 22.2037 30.2714 20.9001L31.9444 20.6987C31.9706 21.6419 32.1857 23.4065 32.2433 23.5072H35.7834C36.0246 23.9789 36.1663 24.5935 36.1663 25.2824C36.1663 27.4021 34.8499 29.1614 31.7032 31.8639L30.5861 30.5179L30.5808 30.5232Z" fill="var(--fill-0, #73727E)"/>
<path id="Vector_18" d="M32.7363 39.802V36.4847H33.78V39.7543C33.78 40.7081 34.294 41.1109 35.0859 41.1109C35.8778 41.1109 36.4023 40.6657 36.4023 39.5847V36.4794H37.4197V39.6059C37.4197 41.4288 36.1872 41.9693 35.0859 41.9693C33.9845 41.9693 32.7416 41.4712 32.7416 39.7967" fill="var(--fill-0, #73727E)"/>
<path id="Vector_19" d="M38.6207 37.7088H39.6224V38.154C39.9266 37.9261 40.4301 37.6028 41.0017 37.6028C42.2604 37.6028 42.3443 38.3712 42.3443 39.235V41.8739H41.3478V39.3516C41.3478 38.721 41.2272 38.4878 40.6765 38.4878C40.2622 38.4878 39.8741 38.6627 39.6224 38.8163V41.8739H38.6207V37.7088Z" fill="var(--fill-0, #73727E)"/>
<path id="Vector_20" d="M43.5191 37.7088H44.5313V41.8739H43.5191V37.7088ZM43.3093 36.4159L44.0121 35.7005L44.7306 36.4159L44.0121 37.1418L43.3093 36.4159Z" fill="var(--fill-0, #73727E)"/>
<path id="Vector_21" d="M45.2235 37.7088H46.3144L47.0644 40.1941L47.3004 41.0526L47.5574 40.1888L48.4017 37.7088H49.4611L47.8983 41.8739H46.6605L45.2235 37.7088Z" fill="var(--fill-0, #73727E)"/>
<path id="Vector_22" d="M52.5292 39.3939C52.5344 38.7687 52.2879 38.3394 51.7792 38.3394C51.2705 38.3394 50.9348 38.7051 50.8981 39.3939H52.5292ZM49.865 39.8603C49.865 38.1911 50.7041 37.6134 51.8736 37.6134C53.0431 37.6134 53.5623 38.4083 53.5623 39.7119V40.0775H50.8771C50.8771 40.9943 51.4436 41.1427 52.1778 41.1427C52.4662 41.1427 52.8963 41.0738 53.2949 40.9678L53.4522 41.7362C53.0431 41.8739 52.5082 41.964 51.9942 41.964C50.6936 41.964 49.865 41.4924 49.865 39.8603Z" fill="var(--fill-0, #73727E)"/>
<path id="Vector_23" d="M54.5168 37.7088H55.5186V38.2652C55.7178 37.9844 56.1164 37.624 56.6304 37.624C56.8612 37.624 57.029 37.6452 57.1653 37.6929L57.0237 38.5302C56.8244 38.4931 56.73 38.4825 56.494 38.4825C56.0797 38.4825 55.7021 38.7263 55.5186 38.9541V41.8686H54.5168V37.7035V37.7088Z" fill="var(--fill-0, #73727E)"/>
<path id="Vector_24" d="M57.5639 41.7891L57.6845 40.9943C58.1461 41.0791 58.5656 41.1321 58.8698 41.1321C59.4572 41.1321 59.6932 40.9731 59.6932 40.7134C59.6932 40.0722 57.6164 40.3266 57.6164 38.8534C57.6164 38.0215 58.3768 37.6028 59.195 37.6028C59.6775 37.6028 60.0918 37.677 60.4799 37.8254L60.2963 38.5779C59.9344 38.4772 59.625 38.4189 59.2264 38.4189C58.8278 38.4189 58.6128 38.5779 58.6128 38.8004C58.6128 39.4628 60.6739 39.2827 60.6739 40.6604C60.6739 41.6832 59.6408 41.964 58.9537 41.964C58.403 41.964 57.9415 41.9057 57.5639 41.7891Z" fill="var(--fill-0, #73727E)"/>
<path id="Vector_25" d="M61.5707 37.7088H62.5829V41.8739H61.5707V37.7088ZM61.361 36.4159L62.0637 35.7005L62.7822 36.4159L62.0637 37.1418L61.361 36.4159Z" fill="var(--fill-0, #73727E)"/>
<path id="Vector_26" d="M63.9832 40.6286V38.4878H63.3801V37.7088H63.9832V36.8557H64.9849V37.7088H66.2593V38.4878H64.9849V40.5756C64.9849 40.989 65.1527 41.1003 65.5408 41.1003C65.8031 41.1003 66.1072 41.0473 66.3642 40.9784L66.4796 41.7891C66.2016 41.8951 65.7087 41.9746 65.4255 41.9746C64.5182 41.9746 63.9832 41.662 63.9832 40.6339" fill="var(--fill-0, #73727E)"/>
<path id="Vector_27" d="M68.5565 41.8739H68.1684L66.7838 37.7088H67.8747L68.6508 40.3743L68.8449 41.0738L69.0652 40.3796L69.9567 37.7088H70.9742L68.9603 43.5537H67.99L68.5565 41.8739Z" fill="var(--fill-0, #73727E)"/>
<path id="Vector_28" d="M2.27612 41.0526C2.98414 41.0526 3.38796 40.8671 3.38796 40.2895C3.38796 39.7119 2.97889 39.4946 2.18172 39.4946H1.47371V41.0526H2.28137H2.27612ZM2.10306 38.7581C2.70618 38.7581 3.01036 38.5461 3.01036 38.0268C3.01036 37.4704 2.64849 37.2849 1.9667 37.2849H1.46847V38.7581H2.10306ZM0.435296 36.4847H2.15026C3.41943 36.4847 4.03829 36.9935 4.03829 37.9155C4.03829 38.4189 3.74459 38.8057 3.4037 38.9594V38.9753C3.83375 39.0813 4.42114 39.4999 4.42114 40.2577C4.42114 41.2115 3.87046 41.8739 2.37577 41.8739H0.435296V36.4847Z" fill="var(--fill-0, #73727E)"/>
<path id="Vector_29" d="M7.61505 40.883V40.0616L6.8546 40.0934C6.38783 40.0987 6.08365 40.3001 6.08365 40.6392C6.08365 41.0049 6.35636 41.1532 6.66579 41.1532C6.97522 41.1532 7.33185 41.0261 7.61505 40.8883M5.10292 40.7134C5.10292 39.6695 6.03645 39.4522 6.80215 39.4469H7.61505V39.0813C7.61505 38.5991 7.35807 38.4719 6.76019 38.4719C6.37734 38.4719 5.95254 38.5567 5.60115 38.6627L5.39662 37.9155C5.80569 37.7459 6.31965 37.6081 6.92802 37.6081C8.06608 37.6081 8.59578 37.9579 8.59578 38.8534V40.8724C8.59578 41.0791 8.77409 41.1215 8.99436 41.1321L8.95765 41.9004C8.88423 41.911 8.80031 41.911 8.71116 41.911C8.27586 41.911 7.79861 41.805 7.70945 41.4394C7.41576 41.6779 6.99095 41.9428 6.45077 41.9428C5.61164 41.9428 5.10817 41.5136 5.10817 40.7134" fill="var(--fill-0, #73727E)"/>
<path id="Vector_30" d="M9.8702 37.7088H10.8719V38.2652C11.0659 37.9844 11.4698 37.624 11.9785 37.624C12.2145 37.624 12.3771 37.6452 12.5134 37.6929L12.3718 38.5302C12.1778 38.4931 12.0781 38.4825 11.8421 38.4825C11.4278 38.4825 11.0502 38.7263 10.8667 38.9541V41.8686H9.86495V37.7035L9.8702 37.7088Z" fill="var(--fill-0, #73727E)"/>
<path id="Vector_31" d="M15.3507 39.3198H13.19V40.1517H15.3507V39.3198Z" fill="var(--fill-0, #73727E)"/>
<path id="Vector_32" d="M23.6056 40.883V40.0616L22.8452 40.0934C22.3784 40.0987 22.0742 40.3001 22.0742 40.6392C22.0742 41.0049 22.3469 41.1532 22.6564 41.1532C22.9658 41.1532 23.3224 41.0261 23.6056 40.8883M21.0935 40.7134C21.0935 39.6695 22.027 39.4522 22.7927 39.4469H23.6056V39.0813C23.6056 38.5991 23.3486 38.4719 22.7508 38.4719C22.3679 38.4719 21.9431 38.5567 21.5865 38.6627L21.3819 37.9155C21.791 37.7459 22.2997 37.6081 22.9133 37.6081C24.0514 37.6081 24.5811 37.9579 24.5811 38.8534V40.8724C24.5811 41.0791 24.7594 41.1215 24.9797 41.1321L24.943 41.9004C24.8695 41.911 24.7856 41.911 24.6965 41.911C24.2612 41.911 23.7839 41.805 23.6948 41.4394C23.4011 41.6779 22.9763 41.9428 22.4361 41.9428C21.597 41.9428 21.0935 41.5136 21.0935 40.7134Z" fill="var(--fill-0, #73727E)"/>
<path id="Vector_33" d="M25.8608 37.7088H26.8625V38.154C27.1666 37.9261 27.6701 37.6028 28.2418 37.6028C29.5005 37.6028 29.5844 38.3712 29.5844 39.235V41.8739H28.5879V39.3516C28.5879 38.721 28.4673 38.4878 27.9166 38.4878C27.5023 38.4878 27.1142 38.6627 26.8625 38.8163V41.8739H25.8608V37.7088Z" fill="var(--fill-0, #73727E)"/>
<path id="Vector_34" d="M19.6408 41.8898C19.0376 41.8792 18.7439 41.503 18.7439 40.8406V36.4847H19.7456V40.7134C19.7456 40.9254 19.8348 41.0261 20.0184 41.0261C20.097 41.0261 20.2491 41.0102 20.396 40.9837L20.5113 41.7838C20.2019 41.858 19.84 41.8951 19.6408 41.8951" fill="var(--fill-0, #73727E)"/>
<path id="Vector_35" d="M17.5954 36.4847H16.5675V41.8739H17.5954V36.4847Z" fill="var(--fill-0, #73727E)"/>
<path id="Vector_36" d="M115.542 33.602C112.254 40.3531 105.378 45.0004 97.4223 45.0004C86.6238 45.0004 77.8026 36.4264 77.2676 25.6534H83.3408C83.8705 33.0456 89.9698 38.8746 97.4223 38.8746C101.849 38.8746 105.793 36.8186 108.383 33.602H115.542Z" fill="var(--fill-0, #73727E)"/>
<path id="Vector_37" d="M117.588 25.452C117.598 25.1711 117.603 24.8956 117.603 24.6094C117.603 16.4647 112.878 9.4328 106.044 6.16856L102.808 11.42C107.932 13.5608 111.535 18.6585 111.535 24.6094C111.535 24.8903 111.525 25.1711 111.509 25.452H100.296L96.5202 31.5778H119.979V25.452H117.577H117.588Z" fill="var(--fill-0, #73727E)"/>
<path id="Vector_38" d="M97.438 26.1674L100.789 20.7252L84.8092 2.14124L80.2308 6.15796L83.4509 9.89913C79.8584 13.3859 77.5403 18.2028 77.2728 23.5655H83.346C83.5977 20.0469 85.1134 16.8833 87.4367 14.5305L97.4433 26.1621L97.438 26.1674Z" fill="var(--fill-0, #73727E)"/>
<path id="Vector_39" d="M94.4224 11.4836C94.2703 11.7273 94.3438 12.0506 94.5903 12.1989C94.8315 12.3526 95.1514 12.2784 95.2983 12.0294L95.529 11.6531L97.1653 12.6812L96.9346 13.0574C96.7825 13.3012 96.8559 13.6244 97.1024 13.7781C97.3436 13.9318 97.6636 13.8576 97.8104 13.6085L98.0412 13.2323L98.9222 13.7834L105.378 3.30175L104.497 2.75064L104.728 2.3744C104.88 2.13065 104.807 1.8074 104.56 1.65373C104.319 1.50005 103.999 1.57954 103.852 1.8233L103.621 2.19953L101.985 1.17151L102.216 0.795271C102.368 0.551513 102.294 0.228267 102.053 0.0798922C101.812 -0.0737818 101.492 0.000405632 101.34 0.249464L101.109 0.6257L100.228 0.0745931L93.7721 10.5562L94.648 11.1073L94.4172 11.4836H94.4224Z" fill="var(--fill-0, #73727E)"/>
</g>
</svg>
