<svg preserveAspectRatio="none" width="100%" height="100%" overflow="visible" style="display: block;" viewBox="0 0 120 20" fill="none" xmlns="http://www.w3.org/2000/svg">
<g id="Group">
<path id="Vector" d="M120 10C120 4.47708 110.653 0 99.1216 0C97.4524 0 95.8308 0.0930931 94.2752 0.270215C95.3484 0.186185 96.4504 0.142934 97.574 0.142934C108.828 0.142934 117.951 4.51291 117.951 9.9032C117.951 15.2935 108.828 19.6626 97.574 19.6626C94.6064 19.6626 91.7884 19.3587 89.2456 18.812C92.1856 19.5704 95.5484 20 99.1216 20C110.653 20 120 15.5229 120 10Z" fill="var(--fill-0, #73727E)"/>
<path id="Vector_2" d="M108.376 2.86691C105.292 1.73415 101.432 1.06026 97.2436 1.06026C87.132 1.06026 78.9352 4.98702 78.9352 9.82906C78.9352 14.6731 86.5076 18.5995 97.2436 18.5995C99.7456 18.5995 102.129 18.3589 104.301 17.924C102.496 18.2226 100.556 18.3832 98.5392 18.3832C88.7696 18.3832 80.8496 14.5904 80.8496 9.91062C80.8496 5.2317 88.7696 1.43758 98.5392 1.43758C102.18 1.43716 105.564 1.96482 108.376 2.86691Z" fill="var(--fill-0, #73727E)"/>
<path id="Vector_3" d="M86.9668 16.7574L92.86 10.7493H87.6624V8.91008H92.86L87.0424 2.96L88.9976 2.3549L95.7712 9.36936V1.19537L103.21 8.91008H110.326L112.375 9.82988L110.326 10.8642H103.21L96.0004 18.436L95.7712 18.4866V10.2892L89.0088 17.2892L86.9668 16.7574Z" fill="var(--fill-0, #73727E)"/>
<path id="Vector_4" d="M48.0984 10.7892H42.4408L45.244 5.13943L48.0984 10.7892ZM46.7852 2.24822H45.5776L37.5544 17.6756C37.8372 17.6537 38.12 17.6756 38.4544 17.6756C38.7628 17.6756 39.0456 17.6537 39.4056 17.6756C40.1256 15.6008 41.0516 13.9754 41.9516 12.0336H48.4848C49.5132 14.0417 50.4392 15.843 51.1848 17.6756C51.6224 17.6537 52.0596 17.6756 52.5476 17.6756C52.9848 17.6756 54.0124 17.6537 54.5008 17.6756L46.7852 2.24822Z" fill="var(--fill-0, #73727E)"/>
<path id="Vector_5" d="M0 17.6756C0.36 17.6529 0.7456 17.6756 1.132 17.6756C1.4912 17.6756 2.6664 17.6529 3.078 17.6756V10.304H3.2404L5.2984 12.3784L8.3328 15.7552C8.8728 16.3731 9.3872 16.9918 9.9528 17.6756C10.4156 17.6529 10.9304 17.6756 11.4188 17.6756C11.908 17.6756 12.3708 17.6529 12.9108 17.6756L12.4216 17.124L11.188 15.8879L5.8896 10.1273C8.4876 9.73061 11.47 8.81081 11.47 6.25118C11.47 4.0215 9.4132 2.5794 5.4524 2.5794H0V17.6756ZM3.078 3.39581C4.1584 3.35173 5.092 3.28541 6.044 3.41723C7.9728 3.6825 8.8728 4.67562 8.8728 6.19846C8.8728 7.92025 7.458 9.02377 5.5812 9.35453C4.2688 9.57532 3.4384 9.48676 3.078 9.46493V3.39581Z" fill="var(--fill-0, #73727E)"/>
<path id="Vector_6" d="M23.8332 10.7892H18.1752L20.9788 5.13943L23.8332 10.7892ZM22.52 2.24822H21.3124L13.2892 17.6756C13.5716 17.6537 13.8548 17.6756 14.1892 17.6756C14.4976 17.6756 14.7804 17.6537 15.1404 17.6756C15.8604 15.6008 16.7864 13.9754 17.6872 12.0336H24.2196C25.248 14.0417 26.174 15.843 26.9196 17.6756C27.3568 17.6537 27.7944 17.6756 28.2824 17.6756C28.72 17.6756 29.7476 17.6537 30.2356 17.6756L22.52 2.24822Z" fill="var(--fill-0, #73727E)"/>
<path id="Vector_7" d="M30.8792 17.6756C31.2388 17.6537 31.6244 17.6756 32.0108 17.6756C32.37 17.6756 33.5452 17.6537 33.9572 17.6756V10.444H40.0328V9.1564H33.9572V3.93418H35.1228H40.6244V2.5794H30.8788L30.8792 17.6756Z" fill="var(--fill-0, #73727E)"/>
<path id="Vector_8" d="M58.3868 3.93376H59.5524H65.0548V2.57981H55.3084V17.6088H65.2088V16.2553H58.3868V10.4445H61.5584H64.4624V9.1564H61.5584H58.3868V3.93376Z" fill="var(--fill-0, #73727E)"/>
<path id="Vector_9" d="M70.0388 2.5794C69.6268 2.60123 68.4752 2.5794 68.1156 2.5794C67.73 2.5794 67.3436 2.60123 66.9832 2.5794V17.6097H77.2684V16.2549H70.0388V2.5794Z" fill="var(--fill-0, #73727E)"/>
</g>
</svg>
