<svg preserveAspectRatio="none" width="100%" height="100%" overflow="visible" style="display: block;" viewBox="0 0 108 30" fill="none" xmlns="http://www.w3.org/2000/svg">
<g id="Layer_1" clip-path="url(#clip0_0_717)">
<path id="Vector" d="M6.4442 14.1036L17.0652 0H24.663L15.0365 12.5896L24.7425 29.4821H17.3039L10.8199 18.0876L6.4442 23.8247V29.4821H0V0H6.4442V14.1036Z" fill="var(--fill-0, black)"/>
<path id="Vector_2" d="M26.2144 29.4821V0H32.579L44.9901 18.7649V0H51.3547V29.4821H44.9901L32.579 10.757V29.4821H26.2144Z" fill="var(--fill-0, black)"/>
<path id="Vector_3" d="M55.4917 0H67.7436C73.6707 0 77.2508 3.10757 77.2508 8.16733C77.2508 11.3147 75.8188 13.6255 73.1536 14.7809C76.0575 15.7371 77.6088 18.008 77.6088 21.3546C77.6088 26.5737 74.1083 29.4821 67.7436 29.4821H55.4917V0ZM61.9359 5.65737V12.0717H67.0674C69.3746 12.0717 70.6475 10.9163 70.6475 8.80478C70.6475 6.69323 69.4144 5.65737 67.0674 5.65737H61.9359ZM61.9359 17.49V23.8247H67.3856C69.7724 23.8247 71.0055 22.749 71.0055 20.5578C71.0055 18.5657 69.7326 17.49 67.3856 17.49H61.9359Z" fill="var(--fill-0, black)"/>
<path id="Vector_4" d="M86.4 23.506H98.0155V29.4821H79.9558V0H86.4V23.506Z" fill="var(--fill-0, black)"/>
<path id="Vector_5" d="M100.681 26.4143C100.681 24.4223 102.312 22.7888 104.34 22.7888C106.369 22.7888 108 24.4223 108 26.4143C108 28.4064 106.289 30 104.34 30C102.391 30 100.681 28.3665 100.681 26.4143Z" fill="var(--fill-0, #4F39F6)"/>
</g>
<defs>
<clipPath id="clip0_0_717">
<rect width="108" height="30" fill="white"/>
</clipPath>
</defs>
</svg>
