<svg preserveAspectRatio="none" width="100%" height="100%" overflow="visible" style="display: block;" viewBox="0 0 607 166" fill="none" xmlns="http://www.w3.org/2000/svg">
<g id="Frame 108">
<path id="Vector" d="M35.8011 78.0398L94.8066 0H137.017L83.5359 69.6627L137.459 163.134H96.1326L60.1105 100.085L35.8011 131.83V163.134H0V0H35.8011V78.0398Z" fill="var(--fill-0, white)"/>
<path id="Vector_2" d="M152.635 163.134V0H187.994L256.945 103.833V0H292.304V163.134H256.945L187.994 59.5219V163.134H152.635Z" fill="var(--fill-0, white)"/>
<path id="Vector_3" d="M315.287 0H383.354C416.282 0 436.171 17.1952 436.171 45.1926C436.171 62.6082 428.216 75.3944 413.409 81.7875C429.541 87.0783 438.16 99.6441 438.16 118.162C438.16 147.041 418.713 163.134 383.354 163.134H315.287V0ZM351.088 31.3041V66.7968H379.597C392.414 66.7968 399.486 60.4037 399.486 48.7198C399.486 37.0359 392.635 31.3041 379.597 31.3041H351.088ZM351.088 96.7782V131.83H381.365C394.624 131.83 401.475 125.878 401.475 113.753C401.475 102.73 394.403 96.7782 381.365 96.7782H351.088Z" fill="var(--fill-0, white)"/>
<path id="Vector_4" d="M487 130.066H551.53V163.134H451.199V0H487V130.066Z" fill="var(--fill-0, white)"/>
<path id="Vector_5" d="M566.337 146.16C566.337 135.137 575.398 126.099 586.668 126.099C597.939 126.099 607 135.137 607 146.16C607 157.182 597.497 166 586.668 166C575.84 166 566.337 156.962 566.337 146.16Z" fill="var(--fill-0, #4F39F6)"/>
</g>
</svg>
