<svg preserveAspectRatio="none" width="100%" height="100%" overflow="visible" style="display: block;" viewBox="0 0 20 20" fill="none" xmlns="http://www.w3.org/2000/svg">
<g id="facebook (4)" clip-path="url(#clip0_0_754)">
<path id="Vector" fill-rule="evenodd" clip-rule="evenodd" d="M9.96806 0.303043C11.7709 0.323616 13.3996 0.766706 14.8542 1.63231C16.2914 2.48064 17.487 3.68349 18.3265 5.12585C19.1868 6.58917 19.6273 8.22775 19.6478 10.0416C19.5967 12.5234 18.8139 14.643 17.2995 16.4006C15.785 18.1582 13.8454 19.2455 11.8374 19.6624V12.7043H13.7358L14.1651 9.96988H11.2906V8.17894C11.2746 7.80767 11.392 7.44293 11.6216 7.15069C11.8515 6.85765 12.2563 6.70363 12.836 6.68863H14.5718V4.29338C14.5469 4.28537 14.3106 4.25368 13.8628 4.19832C13.355 4.13891 12.8444 4.10717 12.3332 4.10326C11.176 4.1086 10.2609 4.43499 9.5878 5.08245C8.91465 5.72973 8.57079 6.6662 8.55622 7.89186V9.96988H6.36871V12.7043H8.55622V19.6624C6.09079 19.2455 4.15114 18.1582 2.63668 16.4006C1.12223 14.643 0.339496 12.5234 0.288395 10.0416C0.30884 8.22766 0.749251 6.58909 1.60963 5.12585C2.44919 3.68349 3.64474 2.48064 5.08196 1.63231C6.53648 0.766872 8.16518 0.323783 9.96806 0.303043Z" fill="var(--fill-0, white)"/>
</g>
<defs>
<clipPath id="clip0_0_754">
<rect width="20" height="20" fill="white"/>
</clipPath>
</defs>
</svg>
