<svg preserveAspectRatio="none" width="100%" height="100%" overflow="visible" style="display: block;" viewBox="0 0 16 16" fill="none" xmlns="http://www.w3.org/2000/svg">
<g id="_x31_0.Linkedin">
<path id="Vector" d="M16 16V10.14C16 7.26 15.38 5.06 12.02 5.06C10.4 5.06 9.32 5.94 8.88 6.78H8.84V5.32H5.66V16H8.98V10.7C8.98 9.3 9.24 7.96 10.96 7.96C12.66 7.96 12.68 9.54 12.68 10.78V15.98H16V16Z" fill="var(--fill-0, white)"/>
<path id="Vector_2" d="M0.26 5.32H3.58V16H0.26V5.32Z" fill="var(--fill-0, white)"/>
<path id="Vector_3" d="M1.92 0C0.86 0 0 0.86 0 1.92C0 2.98 0.86 3.86 1.92 3.86C2.98 3.86 3.84 2.98 3.84 1.92C3.84 0.86 2.98 0 1.92 0Z" fill="var(--fill-0, white)"/>
</g>
</svg>
